<svg width="37" height="37" viewBox="0 0 37 37" fill="none" xmlns="http://www.w3.org/2000/svg">
<path d="M3.85419 14.6459H33.1459V31.6042C33.1459 32.0131 32.9834 32.4053 32.6943 32.6944C32.4052 32.9835 32.0131 33.1459 31.6042 33.1459H5.39585C4.98698 33.1459 4.59485 32.9835 4.30573 32.6944C4.01661 32.4053 3.85419 32.0131 3.85419 31.6042V14.6459ZM3.85419 7.70841C3.85419 7.29954 4.01661 6.90741 4.30573 6.61829C4.59485 6.32917 4.98698 6.16675 5.39585 6.16675H31.6042C32.0131 6.16675 32.4052 6.32917 32.6943 6.61829C32.9834 6.90741 33.1459 7.29954 33.1459 7.70841V14.6459H3.85419V7.70841Z" fill="#278221" stroke="black" stroke-width="4" stroke-linejoin="round"/>
<path d="M12.3334 23.896L16.9584 28.521L26.2084 19.271" fill="#278221"/>
<path d="M12.3334 23.896L16.9584 28.521L26.2084 19.271" stroke="black" stroke-width="4" stroke-linecap="round" stroke-linejoin="round"/>
<path d="M12.3334 3.85425V10.0209V3.85425ZM24.6667 3.85425V10.0209V3.85425Z" fill="#278221"/>
<path d="M12.3334 3.85425V10.0209M24.6667 3.85425V10.0209" stroke="black" stroke-width="4" stroke-linecap="round"/>
</svg>
