<svg width="37" height="37" viewBox="0 0 37 37" fill="none" xmlns="http://www.w3.org/2000/svg">
<path d="M37 10.2074L33.7301 6.9375L27.2713 13.3963L23.6037 9.72869L30.0625 3.26988L26.7926 0L20.3338 6.45881L16.1875 2.3125L13.0564 5.44131L31.5564 23.9413L34.6875 20.8125L30.5412 16.6662L37 10.2074ZM28.6912 24.346L12.654 8.30881C9.19221 12.4598 5.26327 18.8769 7.97815 24.3969L3.20052 29.1745C2.66052 29.7178 2.35742 30.4527 2.35742 31.2188C2.35742 31.9848 2.66052 32.7197 3.20052 33.263L3.73702 33.7995C4.28034 34.3395 5.01525 34.6426 5.78127 34.6426C6.5473 34.6426 7.28221 34.3395 7.82552 33.7995L12.6031 29.0219C18.1231 31.7367 24.538 27.8101 28.6912 24.346Z" fill="#278221"/>
</svg>
