<svg width="37" height="37" viewBox="0 0 37 37" fill="none" xmlns="http://www.w3.org/2000/svg">
<path d="M30.0625 4.625H6.9375C5.66034 4.625 4.625 5.66034 4.625 6.9375V30.0625C4.625 31.3397 5.66034 32.375 6.9375 32.375H30.0625C31.3397 32.375 32.375 31.3397 32.375 30.0625V6.9375C32.375 5.66034 31.3397 4.625 30.0625 4.625Z" fill="#278221" stroke="black" stroke-width="4" stroke-linejoin="round"/>
<path d="M21.5833 4.625L4.625 21.5833Z" fill="#278221"/>
<path d="M21.5833 4.625L4.625 21.5833" stroke="black" stroke-width="4" stroke-linecap="round" stroke-linejoin="round"/>
<path d="M32.375 15.4167L15.4167 32.3751Z" fill="#278221"/>
<path d="M32.375 15.4167L15.4167 32.3751" stroke="black" stroke-width="4" stroke-linecap="round" stroke-linejoin="round"/>
<path d="M30.8333 6.16675L6.16666 30.8334Z" fill="#278221"/>
<path d="M30.8333 6.16675L6.16666 30.8334" stroke="black" stroke-width="4" stroke-linecap="round" stroke-linejoin="round"/>
<path d="M9.25 16.9583L14.6458 22.3541Z" fill="#278221"/>
<path d="M9.25 16.9583L14.6458 22.3541" stroke="black" stroke-width="4" stroke-linecap="round" stroke-linejoin="round"/>
<path d="M22.3542 14.6458L27.75 20.0416Z" fill="#278221"/>
<path d="M22.3542 14.6458L27.75 20.0416" stroke="black" stroke-width="4" stroke-linecap="round" stroke-linejoin="round"/>
</svg>
