<svg width="37" height="37" viewBox="0 0 37 37" fill="none" xmlns="http://www.w3.org/2000/svg">
<g clip-path="url(#clip0_216_14)">
<path d="M2.3125 30.0625C2.3125 31.9024 3.04341 33.667 4.34445 34.968C5.64548 36.269 7.41006 37 9.25 37H27.75C29.5899 37 31.3545 36.269 32.6556 34.968C33.9566 33.667 34.6875 31.9024 34.6875 30.0625V27.75H2.3125V30.0625ZM35.8438 20.8125H28.9062V18.5H33.5312C33.8379 18.5 34.132 18.3781 34.3488 18.1613C34.5657 17.9445 34.6875 17.6504 34.6875 17.3437V16.1875C34.6875 15.8808 34.5657 15.5867 34.3488 15.3699C34.132 15.153 33.8379 15.0312 33.5312 15.0312H27.75C27.1367 15.0312 26.5485 15.2748 26.1148 15.7085C25.6811 16.1422 25.4375 16.7304 25.4375 17.3437V20.8125H20.8125V6.93745C20.8125 6.32414 21.0561 5.73595 21.4898 5.30227C21.9235 4.86859 22.5117 4.62495 23.125 4.62495C23.7383 4.62495 24.3265 4.86859 24.7602 5.30227C25.1939 5.73595 25.4375 6.32414 25.4375 6.93745V8.0937C25.4375 8.40036 25.5593 8.69446 25.7762 8.91129C25.993 9.12813 26.2871 9.24995 26.5938 9.24995H28.9062C29.2129 9.24995 29.507 9.12813 29.7238 8.91129C29.9407 8.69446 30.0625 8.40036 30.0625 8.0937V6.93745C30.0611 5.90943 29.8316 4.89451 29.3906 3.96588C28.9496 3.03725 28.3081 2.21803 27.5122 1.56728C26.7164 0.916527 25.7861 0.450461 24.7884 0.202676C23.7907 -0.0451087 22.7504 -0.0684393 21.7426 0.134366C18.4487 0.773917 16.1875 3.85605 16.1875 7.21134V20.8125H11.5625V17.3437C11.5625 16.7304 11.3189 16.1422 10.8852 15.7085C10.4515 15.2748 9.86331 15.0312 9.25 15.0312H3.46875C3.16209 15.0312 2.868 15.153 2.65116 15.3699C2.43432 15.5867 2.3125 15.8808 2.3125 16.1875V17.3437C2.3125 17.6504 2.43432 17.9445 2.65116 18.1613C2.868 18.3781 3.16209 18.5 3.46875 18.5H8.09375V20.8125H1.15625C0.849593 20.8125 0.555497 20.9343 0.338658 21.1511C0.121819 21.3679 0 21.662 0 21.9687L0 24.2812C0 24.5879 0.121819 24.882 0.338658 25.0988C0.555497 25.3156 0.849593 25.4375 1.15625 25.4375H35.8438C36.1504 25.4375 36.4445 25.3156 36.6613 25.0988C36.8782 24.882 37 24.5879 37 24.2812V21.9687C37 21.662 36.8782 21.3679 36.6613 21.1511C36.4445 20.9343 36.1504 20.8125 35.8438 20.8125Z" fill="#278221"/>
</g>
<defs>
<clipPath id="clip0_216_14">
<rect width="37" height="37" fill="white"/>
</clipPath>
</defs>
</svg>
